<svg width="24" height="24" viewBox="0 0 24 24" fill="none" xmlns="http://www.w3.org/2000/svg">
<path fill-rule="evenodd" clip-rule="evenodd" d="M4.70943 0.0418299C4.70943 0.112607 5.96491 0.101875 5.98854 0.0309168C6.01349 -0.0438908 6.15849 0.0978896 6.15849 0.197105C6.15849 0.236229 6.17887 0.268245 6.20377 0.268245C6.22868 0.268245 6.24906 0.349754 6.24906 0.449377C6.24906 0.549 6.26943 0.630509 6.29434 0.630509C6.31925 0.630509 6.33962 0.691641 6.33962 0.766358C6.33962 0.841075 6.36 0.902207 6.38491 0.902207C6.40981 0.902207 6.43019 0.983717 6.43019 1.08334C6.43019 1.18296 6.45057 1.26447 6.47547 1.26447C6.50038 1.26447 6.52075 1.3256 6.52075 1.40032C6.52075 1.47504 6.54113 1.53617 6.56604 1.53617C6.59094 1.53617 6.61132 1.61768 6.61132 1.7173C6.61132 1.81692 6.6317 1.89843 6.6566 1.89843C6.68151 1.89843 6.70189 1.97994 6.70189 2.07957C6.70189 2.17919 6.72226 2.2607 6.74717 2.2607C6.77208 2.2607 6.79245 2.32183 6.79245 2.39655C6.79245 2.47126 6.81283 2.5324 6.83774 2.5324C6.86264 2.5324 6.88302 2.61391 6.88302 2.71353C6.88302 2.81315 6.9034 2.89466 6.9283 2.89466C6.95321 2.89466 6.97359 2.95579 6.97359 3.03051C6.97359 3.10523 6.99396 3.16636 7.01887 3.16636C7.04377 3.16636 7.06415 3.24787 7.06415 3.34749C7.06415 3.49842 7.07923 3.52862 7.15472 3.52862C7.2302 3.52862 7.24528 3.49842 7.24528 3.34749C7.24528 3.24787 7.26566 3.16636 7.29057 3.16636C7.31547 3.16636 7.33585 3.08485 7.33585 2.98523C7.33585 2.8856 7.35623 2.80409 7.38113 2.80409C7.40604 2.80409 7.42642 2.72258 7.42642 2.62296C7.42642 2.52334 7.44679 2.44183 7.4717 2.44183C7.4966 2.44183 7.51698 2.3807 7.51698 2.30598C7.51698 2.23126 7.53736 2.17013 7.56226 2.17013C7.58717 2.17013 7.60755 2.08862 7.60755 1.989C7.60755 1.88938 7.62792 1.80787 7.65283 1.80787C7.67774 1.80787 7.69811 1.72636 7.69811 1.62674C7.69811 1.52711 7.71849 1.4456 7.7434 1.4456C7.7683 1.4456 7.78868 1.36409 7.78868 1.26447C7.78868 1.16485 7.80906 1.08334 7.83396 1.08334C7.85887 1.08334 7.87925 1.02221 7.87925 0.94749C7.87925 0.872773 7.89962 0.811641 7.92453 0.811641C7.94943 0.811641 7.96981 0.730132 7.96981 0.630509C7.96981 0.530886 7.99019 0.449377 8.01509 0.449377C8.04 0.449377 8.06038 0.367868 8.06038 0.268245V0.0871129H8.92075C9.46415 0.0871129 9.78113 0.103777 9.78113 0.132396C9.78113 0.157302 9.76075 0.177679 9.73585 0.177679C9.71094 0.177679 9.69057 0.218434 9.69057 0.268245C9.69057 0.318056 9.67019 0.358811 9.64528 0.358811C9.62038 0.358811 9.6 0.419943 9.6 0.49466C9.6 0.569377 9.57962 0.630509 9.55472 0.630509C9.52981 0.630509 9.50943 0.691641 9.50943 0.766358C9.50943 0.841075 9.48906 0.902207 9.46415 0.902207C9.43925 0.902207 9.41887 0.963339 9.41887 1.03806C9.41887 1.11277 9.39849 1.17391 9.37358 1.17391C9.34868 1.17391 9.3283 1.23504 9.3283 1.30975C9.3283 1.38447 9.30792 1.4456 9.28302 1.4456C9.25811 1.4456 9.23774 1.50674 9.23774 1.58145C9.23774 1.65617 9.21736 1.7173 9.19245 1.7173C9.16755 1.7173 9.14717 1.77843 9.14717 1.85315C9.14717 1.92787 9.12679 1.989 9.10189 1.989C9.07698 1.989 9.0566 2.05013 9.0566 2.12485C9.0566 2.19957 9.03623 2.2607 9.01132 2.2607C8.98641 2.2607 8.96604 2.32183 8.96604 2.39655C8.96604 2.47126 8.94566 2.5324 8.92075 2.5324C8.89585 2.5324 8.87547 2.57315 8.87547 2.62296C8.87547 2.67277 8.85509 2.71353 8.83019 2.71353C8.80528 2.71353 8.78491 2.77466 8.78491 2.84938C8.78491 2.92409 8.76453 2.98523 8.73962 2.98523C8.71472 2.98523 8.69434 3.04636 8.69434 3.12107C8.69434 3.19579 8.67396 3.25692 8.64906 3.25692C8.62415 3.25692 8.60377 3.31806 8.60377 3.39277C8.60377 3.46749 8.5834 3.52862 8.55849 3.52862C8.53358 3.52862 8.51321 3.58975 8.51321 3.66447C8.51321 3.73919 8.49283 3.80032 8.46793 3.80032C8.44302 3.80032 8.42264 3.86145 8.42264 3.93617C8.42264 4.01089 8.40226 4.07202 8.37736 4.07202C8.35245 4.07202 8.33208 4.13315 8.33208 4.20787C8.33208 4.28258 8.3117 4.34372 8.28679 4.34372C8.26189 4.34372 8.24151 4.40485 8.24151 4.47957C8.24151 4.55428 8.22113 4.61541 8.19623 4.61541C8.17132 4.61541 8.15094 4.67655 8.15094 4.75126C8.15094 4.82598 8.13057 4.88711 8.10566 4.88711C8.08076 4.88711 8.06038 4.94824 8.06038 5.02296C8.06038 5.09768 8.04 5.15881 8.01509 5.15881C7.98562 5.15881 7.96981 5.82298 7.96981 7.0607V8.96258H7.15472H6.33962V7.10598C6.33962 5.89842 6.32377 5.24938 6.29434 5.24938C6.26943 5.24938 6.24906 5.18824 6.24906 5.11353C6.24906 5.03881 6.22868 4.97768 6.20377 4.97768C6.17887 4.97768 6.15849 4.93692 6.15849 4.88711C6.15849 4.8373 6.13811 4.79655 6.11321 4.79655C6.0883 4.79655 6.06792 4.73541 6.06792 4.6607C6.06792 4.58598 6.04755 4.52485 6.02264 4.52485C5.99774 4.52485 5.97736 4.46372 5.97736 4.389C5.97736 4.31428 5.95698 4.25315 5.93208 4.25315C5.90717 4.25315 5.88679 4.19202 5.88679 4.1173C5.88679 4.04258 5.86642 3.98145 5.84151 3.98145C5.8166 3.98145 5.79623 3.92032 5.79623 3.8456C5.79623 3.77089 5.77585 3.70975 5.75094 3.70975C5.72604 3.70975 5.70566 3.64862 5.70566 3.57391C5.70566 3.49919 5.68528 3.43806 5.66038 3.43806C5.63547 3.43806 5.61509 3.37692 5.61509 3.30221C5.61509 3.22749 5.59472 3.16636 5.56981 3.16636C5.54491 3.16636 5.52453 3.10523 5.52453 3.03051C5.52453 2.95579 5.50415 2.89466 5.47925 2.89466C5.45434 2.89466 5.43396 2.83353 5.43396 2.75881C5.43396 2.68409 5.41359 2.62296 5.38868 2.62296C5.36377 2.62296 5.3434 2.56183 5.3434 2.48711C5.3434 2.4124 5.32302 2.35126 5.29811 2.35126C5.27321 2.35126 5.25283 2.29013 5.25283 2.21541C5.25283 2.1407 5.23245 2.07957 5.20755 2.07957C5.18264 2.07957 5.16226 2.01843 5.16226 1.94372C5.16226 1.869 5.14189 1.80787 5.11698 1.80787C5.09208 1.80787 5.0717 1.74674 5.0717 1.67202C5.0717 1.5973 5.05132 1.53617 5.02642 1.53617C5.00151 1.53617 4.98113 1.47504 4.98113 1.40032C4.98113 1.3256 4.96075 1.26447 4.93585 1.26447C4.91094 1.26447 4.89057 1.20334 4.89057 1.12862C4.89057 1.05391 4.87019 0.992773 4.84528 0.992773C4.82038 0.992773 4.8 0.952018 4.8 0.902207C4.8 0.852396 4.77962 0.811641 4.75472 0.811641C4.72981 0.811641 4.70943 0.730132 4.70943 0.630509C4.70943 0.530886 4.68906 0.449377 4.66415 0.449377C4.63925 0.449377 4.61887 0.408622 4.61887 0.358811C4.61887 0.309 4.59849 0.268245 4.57359 0.268245C4.5101 0.268245 4.51712 0.141271 4.58491 0.0642903C4.65161 -0.0115134 4.70943 -0.0219286 4.70943 0.0418299ZM12.1358 2.21541C12.1358 2.24032 12.2377 2.2607 12.3623 2.2607C12.4868 2.2607 12.5887 2.28108 12.5887 2.30598C12.5887 2.33089 12.6294 2.35126 12.6792 2.35126C12.7291 2.35126 12.7698 2.37164 12.7698 2.39655C12.7698 2.42145 12.8106 2.44183 12.8604 2.44183C12.9102 2.44183 12.9509 2.46221 12.9509 2.48711C12.9509 2.51202 12.982 2.5324 13.0199 2.5324C13.1095 2.5324 13.5849 3.00778 13.5849 3.09744C13.5849 3.13534 13.6053 3.16636 13.6302 3.16636C13.6551 3.16636 13.6755 3.20711 13.6755 3.25692C13.6755 3.30674 13.6958 3.34749 13.7208 3.34749C13.7457 3.34749 13.766 3.44938 13.766 3.57391C13.766 3.69843 13.7864 3.80032 13.8113 3.80032C13.8408 3.80032 13.8566 4.43428 13.8566 5.61164C13.8566 6.789 13.8408 7.42296 13.8113 7.42296C13.7861 7.42296 13.766 7.54373 13.766 7.69466C13.766 7.84559 13.7459 7.96636 13.7208 7.96636C13.6958 7.96636 13.6755 8.02301 13.6755 8.0922C13.6755 8.1661 13.6381 8.24498 13.5849 8.28334C13.5351 8.31925 13.4943 8.37535 13.4943 8.40805C13.4943 8.4853 13.1982 8.78145 13.1209 8.78145C13.0882 8.78145 13.0321 8.82221 12.9962 8.87202C12.9579 8.92518 12.879 8.96258 12.8051 8.96258C12.7359 8.96258 12.6792 8.98296 12.6792 9.00787C12.6792 9.03277 12.6181 9.05315 12.5434 9.05315C12.4687 9.05315 12.4075 9.07353 12.4075 9.09843C12.4075 9.12628 12.1811 9.14372 11.8189 9.14372C11.4566 9.14372 11.2302 9.12628 11.2302 9.09843C11.2302 9.07353 11.1487 9.05315 11.0491 9.05315C10.9494 9.05315 10.8679 9.03277 10.8679 9.00787C10.8679 8.98296 10.8317 8.96258 10.7874 8.96258C10.743 8.96258 10.6774 8.92183 10.6415 8.87202C10.6056 8.82221 10.5496 8.78145 10.5171 8.78145C10.4347 8.78145 10.0528 8.39143 10.0528 8.30716C10.0528 8.26917 10.0325 8.23806 10.0075 8.23806C9.98264 8.23806 9.96226 8.1973 9.96226 8.14749C9.96226 8.09768 9.94189 8.05692 9.91698 8.05692C9.89208 8.05692 9.8717 7.99579 9.8717 7.92107C9.8717 7.84636 9.85132 7.78523 9.82642 7.78523C9.79689 7.78523 9.78113 7.04562 9.78113 5.65692C9.78113 4.26823 9.79689 3.52862 9.82642 3.52862C9.85132 3.52862 9.8717 3.46749 9.8717 3.39277C9.8717 3.31806 9.89208 3.25692 9.91698 3.25692C9.94189 3.25692 9.96226 3.21617 9.96226 3.16636C9.96226 3.11655 9.98264 3.07579 10.0075 3.07579C10.0325 3.07579 10.0528 3.04455 10.0528 3.00637C10.0528 2.9216 10.3437 2.62296 10.4262 2.62296C10.4589 2.62296 10.515 2.58221 10.5509 2.5324C10.5869 2.48258 10.6525 2.44183 10.6968 2.44183C10.7411 2.44183 10.7774 2.42145 10.7774 2.39655C10.7774 2.37164 10.8385 2.35126 10.9132 2.35126C10.9879 2.35126 11.0491 2.33089 11.0491 2.30598C11.0491 2.2808 11.1698 2.2607 11.3208 2.2607C11.4717 2.2607 11.5925 2.24059 11.5925 2.21541C11.5925 2.19024 11.7132 2.17013 11.8642 2.17013C12.0151 2.17013 12.1358 2.19024 12.1358 2.21541ZM16.2372 2.41597C16.2917 2.47049 16.3019 2.88606 16.3019 5.06824C16.3019 7.79487 16.3012 7.78523 16.4986 7.78523C16.5357 7.78523 16.5779 7.81072 16.5925 7.84183C16.6136 7.88711 16.6242 7.88711 16.6453 7.84183C16.6598 7.81072 16.7266 7.78523 16.7938 7.78523C16.8639 7.78523 16.9436 7.74669 16.9811 7.69466C17.017 7.64485 17.0734 7.60409 17.1064 7.60409C17.1394 7.60409 17.2164 7.55406 17.2775 7.49292L17.3887 7.3818V4.86651V2.35126H18.0485C18.56 2.35126 18.7229 2.3658 18.773 2.41597C18.8279 2.47081 18.8377 2.97313 18.8377 5.72163V8.96258H18.1132H17.3887V8.6456C17.3887 8.47126 17.3769 8.32862 17.3625 8.32862C17.3481 8.32862 17.258 8.41013 17.1623 8.50975C17.0665 8.60938 16.9606 8.69089 16.9267 8.69089C16.8929 8.69089 16.8359 8.73164 16.8 8.78145C16.7641 8.83126 16.6985 8.87202 16.6541 8.87202C16.6099 8.87202 16.5736 8.8924 16.5736 8.9173C16.5736 8.94221 16.5125 8.96258 16.4377 8.96258C16.363 8.96258 16.3019 8.98296 16.3019 9.00787C16.3019 9.03504 16.1208 9.05315 15.8491 9.05315C15.5774 9.05315 15.3962 9.03504 15.3962 9.00787C15.3962 8.98296 15.3648 8.96258 15.3263 8.96258C15.2357 8.96258 15.034 8.76089 15.034 8.67028C15.034 8.63179 15.0136 8.60032 14.9887 8.60032C14.9638 8.60032 14.9434 8.53919 14.9434 8.46447C14.9434 8.38975 14.923 8.32862 14.8981 8.32862C14.8684 8.32862 14.8528 7.30219 14.8528 5.33994V2.35126H15.5126C16.0242 2.35126 16.187 2.3658 16.2372 2.41597ZM11.3774 3.59836L11.2302 3.75246V5.6783C11.2302 6.93196 11.246 7.60409 11.2755 7.60409C11.3004 7.60409 11.3208 7.63611 11.3208 7.67523C11.3208 7.76675 11.4298 7.87579 11.5213 7.87579C11.5604 7.87579 11.5925 7.89617 11.5925 7.92107C11.5925 7.94598 11.674 7.96636 11.7736 7.96636C11.8732 7.96636 11.9547 7.94598 11.9547 7.92107C11.9547 7.89617 11.9862 7.87579 12.0247 7.87579C12.0632 7.87579 12.1447 7.82575 12.2058 7.76462L12.317 7.6535V5.65692V3.66035L12.2058 3.54923C12.1104 3.45381 12.0542 3.43851 11.8096 3.44118C11.5462 3.44403 11.5133 3.45599 11.3774 3.59836ZM20.1057 11.0003C20.1057 11.0255 20.2264 11.0456 20.3774 11.0456C20.5283 11.0456 20.6491 11.0657 20.6491 11.0909C20.6491 11.1158 20.7102 11.1362 20.7849 11.1362C20.8596 11.1362 20.9208 11.1565 20.9208 11.1815C20.9208 11.2064 20.9819 11.2267 21.0566 11.2267C21.1313 11.2267 21.1925 11.2471 21.1925 11.272C21.1925 11.2969 21.2332 11.3173 21.283 11.3173C21.3328 11.3173 21.3736 11.3377 21.3736 11.3626C21.3736 11.3875 21.4302 11.4079 21.4994 11.4079C21.5733 11.4079 21.6522 11.4453 21.6906 11.4984C21.7265 11.5482 21.7921 11.589 21.8364 11.589C21.8807 11.589 21.917 11.6094 21.917 11.6343C21.917 11.6592 21.9495 11.6796 21.9894 11.6796C22.0292 11.6796 22.1189 11.7407 22.1887 11.8154C22.2585 11.8901 22.3383 11.9513 22.3661 11.9513C22.4319 11.9513 23.0943 12.6137 23.0943 12.6796C23.0943 12.7073 23.1555 12.7871 23.2302 12.8569C23.3049 12.9267 23.366 13.0164 23.366 13.0562C23.366 13.0961 23.3864 13.1286 23.4113 13.1286C23.4362 13.1286 23.4566 13.1694 23.4566 13.2192C23.4566 13.269 23.477 13.3098 23.5019 13.3098C23.5268 13.3098 23.5472 13.3505 23.5472 13.4003C23.5472 13.4501 23.5675 13.4909 23.5925 13.4909C23.6174 13.4909 23.6377 13.5316 23.6377 13.5815C23.6377 13.6313 23.6581 13.672 23.683 13.672C23.7079 13.672 23.7283 13.7331 23.7283 13.8079C23.7283 13.8826 23.7487 13.9437 23.7736 13.9437C23.7985 13.9437 23.8189 14.0048 23.8189 14.0796C23.8189 14.1543 23.8392 14.2154 23.8642 14.2154C23.8891 14.2154 23.9094 14.3173 23.9094 14.4418C23.9094 14.5664 23.9298 14.6682 23.9547 14.6682C23.9843 14.6682 24 15.4833 24 17.023C24 18.5626 23.9843 19.3777 23.9547 19.3777C23.9298 19.3777 23.9094 19.4796 23.9094 19.6041C23.9094 19.7286 23.8891 19.8305 23.8642 19.8305C23.8392 19.8305 23.8189 19.8916 23.8189 19.9664C23.8189 20.0411 23.7985 20.1022 23.7736 20.1022C23.7487 20.1022 23.7283 20.1633 23.7283 20.2381C23.7283 20.3128 23.7079 20.3739 23.683 20.3739C23.6581 20.3739 23.6377 20.4147 23.6377 20.4645C23.6377 20.5143 23.6174 20.555 23.5925 20.555C23.5675 20.555 23.5472 20.5958 23.5472 20.6456C23.5472 20.6954 23.5268 20.7362 23.5019 20.7362C23.477 20.7362 23.4566 20.7769 23.4566 20.8267C23.4566 20.8765 23.4362 20.9173 23.4113 20.9173C23.3864 20.9173 23.366 20.9499 23.366 20.9897C23.366 21.0295 23.3049 21.1192 23.2302 21.189C23.1555 21.2588 23.0943 21.3386 23.0943 21.3664C23.0943 21.4323 22.4319 22.0947 22.3661 22.0947C22.3383 22.0947 22.2585 22.1558 22.1887 22.2305C22.1189 22.3052 22.0292 22.3664 21.9894 22.3664C21.9495 22.3664 21.917 22.3867 21.917 22.4116C21.917 22.4365 21.8807 22.4569 21.8364 22.4569C21.7921 22.4569 21.7265 22.4977 21.6906 22.5475C21.6522 22.6007 21.5733 22.6381 21.4994 22.6381C21.4302 22.6381 21.3736 22.6584 21.3736 22.6833C21.3736 22.7082 21.3328 22.7286 21.283 22.7286C21.2332 22.7286 21.1925 22.749 21.1925 22.7739C21.1925 22.7988 21.1313 22.8192 21.0566 22.8192C20.9819 22.8192 20.9208 22.8396 20.9208 22.8645C20.9208 22.8894 20.8596 22.9098 20.7849 22.9098C20.7102 22.9098 20.6491 22.9301 20.6491 22.955C20.6491 22.9802 20.5283 23.0003 20.3774 23.0003C20.2264 23.0003 20.1057 23.0204 20.1057 23.0456C20.1057 23.0756 17.3736 23.0909 12 23.0909C6.6264 23.0909 3.89434 23.0756 3.89434 23.0456C3.89434 23.0204 3.77357 23.0003 3.62264 23.0003C3.47171 23.0003 3.35094 22.9802 3.35094 22.955C3.35094 22.9301 3.28981 22.9098 3.21509 22.9098C3.14038 22.9098 3.07925 22.8894 3.07925 22.8645C3.07925 22.8396 3.01811 22.8192 2.9434 22.8192C2.86868 22.8192 2.80755 22.7988 2.80755 22.7739C2.80755 22.749 2.74642 22.7286 2.6717 22.7286C2.59698 22.7286 2.53585 22.7082 2.53585 22.6833C2.53585 22.6584 2.49509 22.6381 2.44528 22.6381C2.39547 22.6381 2.35472 22.6177 2.35472 22.5928C2.35472 22.5679 2.31845 22.5475 2.27416 22.5475C2.22983 22.5475 2.16421 22.5067 2.1283 22.4569C2.09239 22.4071 2.03126 22.3664 1.99245 22.3664C1.95365 22.3664 1.89251 22.3256 1.8566 22.2758C1.82069 22.226 1.76495 22.1852 1.73276 22.1852C1.66134 22.1852 0.90566 21.437 0.90566 21.3663C0.90566 21.3386 0.844528 21.2588 0.769811 21.189C0.695094 21.1192 0.633962 21.0295 0.633962 20.9897C0.633962 20.9499 0.613585 20.9173 0.588679 20.9173C0.563774 20.9173 0.543396 20.8765 0.543396 20.8267C0.543396 20.7769 0.523019 20.7362 0.498113 20.7362C0.473208 20.7362 0.45283 20.6954 0.45283 20.6456C0.45283 20.5958 0.432453 20.555 0.407547 20.555C0.382642 20.555 0.362264 20.5143 0.362264 20.4645C0.362264 20.4147 0.341887 20.3739 0.316981 20.3739C0.292075 20.3739 0.271698 20.3331 0.271698 20.2833C0.271698 20.2335 0.251321 20.1928 0.226415 20.1928C0.201509 20.1928 0.181132 20.1113 0.181132 20.0116C0.181132 19.912 0.160755 19.8305 0.135849 19.8305C0.110943 19.8305 0.090566 19.749 0.090566 19.6494C0.090566 19.5498 0.0701887 19.4682 0.045283 19.4682C0.0156679 19.4682 0 18.6229 0 17.023C0 15.423 0.0156679 14.5777 0.045283 14.5777C0.0701887 14.5777 0.090566 14.4962 0.090566 14.3965C0.090566 14.2969 0.110943 14.2154 0.135849 14.2154C0.160755 14.2154 0.181132 14.1339 0.181132 14.0343C0.181132 13.9347 0.201509 13.8531 0.226415 13.8531C0.251321 13.8531 0.271698 13.8124 0.271698 13.7626C0.271698 13.7128 0.292075 13.672 0.316981 13.672C0.341887 13.672 0.362264 13.6313 0.362264 13.5815C0.362264 13.5316 0.382642 13.4909 0.407547 13.4909C0.432453 13.4909 0.45283 13.4501 0.45283 13.4003C0.45283 13.3505 0.473208 13.3098 0.498113 13.3098C0.523019 13.3098 0.543396 13.269 0.543396 13.2192C0.543396 13.1694 0.563774 13.1286 0.588679 13.1286C0.613585 13.1286 0.633962 13.0961 0.633962 13.0562C0.633962 13.0164 0.695094 12.9267 0.769811 12.8569C0.844528 12.7871 0.90566 12.7074 0.90566 12.6796C0.90566 12.6089 1.66134 11.8607 1.73276 11.8607C1.76495 11.8607 1.82069 11.8199 1.8566 11.7701C1.89251 11.7203 1.95365 11.6796 1.99245 11.6796C2.03126 11.6796 2.09239 11.6388 2.1283 11.589C2.16421 11.5392 2.22983 11.4984 2.27416 11.4984C2.31845 11.4984 2.35472 11.4781 2.35472 11.4531C2.35472 11.4282 2.39547 11.4079 2.44528 11.4079C2.49509 11.4079 2.53585 11.3875 2.53585 11.3626C2.53585 11.3377 2.59698 11.3173 2.6717 11.3173C2.74642 11.3173 2.80755 11.2969 2.80755 11.272C2.80755 11.2471 2.86868 11.2267 2.9434 11.2267C3.01811 11.2267 3.07925 11.2064 3.07925 11.1815C3.07925 11.1565 3.14038 11.1362 3.21509 11.1362C3.28981 11.1362 3.35094 11.1158 3.35094 11.0909C3.35094 11.0657 3.47171 11.0456 3.62264 11.0456C3.77357 11.0456 3.89434 11.0255 3.89434 11.0003C3.89434 10.9703 6.6264 10.955 12 10.955C17.3736 10.955 20.1057 10.9703 20.1057 11.0003ZM3.44151 13.1286V13.672H4.10133C4.61285 13.672 4.77573 13.6866 4.82586 13.7367C4.88079 13.7916 4.89057 14.312 4.89057 17.1782V20.555H5.52453H6.15849V17.1135V13.672H6.83774H7.51698V13.1739C7.51698 12.872 7.53482 12.6758 7.56226 12.6758C7.58717 12.6758 7.60755 12.6554 7.60755 12.6305C7.60755 12.601 6.88302 12.5852 5.52453 12.5852H3.44151V13.1286ZM12.4981 16.5701V20.555H13.0868H13.6755V20.3286C13.6755 20.2041 13.6877 20.1022 13.7026 20.1022C13.7175 20.1022 13.7868 20.1633 13.8566 20.2381C13.9264 20.3128 14.0161 20.3739 14.0559 20.3739C14.0957 20.3739 14.1283 20.3943 14.1283 20.4192C14.1283 20.4441 14.1691 20.4645 14.2189 20.4645C14.2687 20.4645 14.3094 20.4848 14.3094 20.5098C14.3094 20.5347 14.3909 20.555 14.4906 20.555C14.5902 20.555 14.6717 20.5754 14.6717 20.6003C14.6717 20.6252 14.7532 20.6456 14.8528 20.6456C14.9525 20.6456 15.034 20.6252 15.034 20.6003C15.034 20.5754 15.111 20.555 15.2051 20.555C15.3243 20.555 15.396 20.5275 15.4415 20.4645C15.4774 20.4147 15.543 20.3739 15.5874 20.3739C15.6344 20.3739 15.6679 20.3404 15.6679 20.2933C15.6679 20.249 15.7087 20.1834 15.7585 20.1475C15.8117 20.1091 15.8491 20.0303 15.8491 19.9563C15.8491 19.8872 15.8694 19.8305 15.8943 19.8305C15.9239 19.8305 15.9396 19.0758 15.9396 17.6569C15.9396 16.2381 15.9239 15.4833 15.8943 15.4833C15.8694 15.4833 15.8491 15.4222 15.8491 15.3475C15.8491 15.2728 15.8287 15.2116 15.8038 15.2116C15.7789 15.2116 15.7585 15.1804 15.7585 15.1422C15.7585 15.0521 15.4652 14.7588 15.3751 14.7588C15.3369 14.7588 15.3057 14.7384 15.3057 14.7135C15.3057 14.6886 15.2445 14.6682 15.1698 14.6682C15.0951 14.6682 15.034 14.6479 15.034 14.623C15.034 14.5981 14.9321 14.5777 14.8075 14.5777C14.683 14.5777 14.5811 14.5981 14.5811 14.623C14.5811 14.6479 14.52 14.6682 14.4453 14.6682C14.3706 14.6682 14.3094 14.6886 14.3094 14.7135C14.3094 14.7384 14.2773 14.7588 14.238 14.7588C14.1986 14.7588 14.0882 14.8403 13.9925 14.9399C13.6725 15.273 13.6755 15.2831 13.6755 13.8531V12.5852H13.0868H12.4981V16.5701ZM18.2943 14.5324C18.2943 14.5573 18.1925 14.5777 18.0679 14.5777C17.9434 14.5777 17.8415 14.5981 17.8415 14.623C17.8415 14.6479 17.7804 14.6682 17.7057 14.6682C17.6309 14.6682 17.5698 14.6886 17.5698 14.7135C17.5698 14.7384 17.5389 14.7588 17.501 14.7588C17.4632 14.7588 17.3002 14.8909 17.1388 15.0523C16.9774 15.2137 16.8453 15.3767 16.8453 15.4146C16.8453 15.4524 16.8249 15.4833 16.8 15.4833C16.7751 15.4833 16.7547 15.5445 16.7547 15.6192C16.7547 15.6939 16.7343 15.755 16.7094 15.755C16.68 15.755 16.6642 16.4041 16.6642 17.6116C16.6642 18.8192 16.68 19.4682 16.7094 19.4682C16.7343 19.4682 16.7547 19.5294 16.7547 19.6041C16.7547 19.6788 16.7751 19.7399 16.8 19.7399C16.8249 19.7399 16.8453 19.7807 16.8453 19.8305C16.8453 19.8803 16.8657 19.9211 16.8906 19.9211C16.9155 19.9211 16.9359 19.9522 16.9359 19.9902C16.9359 20.0801 17.3203 20.4645 17.4101 20.4645C17.4481 20.4645 17.4792 20.4848 17.4792 20.5098C17.4792 20.5347 17.52 20.555 17.5698 20.555C17.6196 20.555 17.6604 20.5754 17.6604 20.6003C17.6604 20.6255 17.7811 20.6456 17.9321 20.6456C18.083 20.6456 18.2038 20.6657 18.2038 20.6909C18.2038 20.7158 18.2853 20.7362 18.3849 20.7362C18.4845 20.7362 18.566 20.7158 18.566 20.6909C18.566 20.6657 18.6868 20.6456 18.8377 20.6456C18.9887 20.6456 19.1094 20.6255 19.1094 20.6003C19.1094 20.5754 19.1502 20.555 19.2 20.555C19.2498 20.555 19.2906 20.5347 19.2906 20.5098C19.2906 20.4848 19.3313 20.4645 19.3811 20.4645C19.4309 20.4645 19.4717 20.4441 19.4717 20.4192C19.4717 20.3943 19.5032 20.3739 19.5417 20.3739C19.6323 20.3739 19.834 20.1722 19.834 20.0816C19.834 20.0431 19.8543 20.0116 19.8792 20.0116C19.9042 20.0116 19.9245 19.9709 19.9245 19.9211C19.9245 19.8713 19.9449 19.8305 19.9698 19.8305C19.9947 19.8305 20.0151 19.7694 20.0151 19.6947C20.0151 19.6199 20.0355 19.5588 20.0604 19.5588C20.0875 19.5588 20.1057 19.3777 20.1057 19.106V18.6531H19.517H18.9283V19.0607C18.9283 19.3022 18.9099 19.4682 18.883 19.4682C18.8581 19.4682 18.8377 19.509 18.8377 19.5588C18.8377 19.6192 18.8075 19.6494 18.7472 19.6494C18.6974 19.6494 18.6566 19.6698 18.6566 19.6947C18.6566 19.7196 18.5436 19.7399 18.4055 19.7399C18.1992 19.7399 18.1345 19.7201 18.0432 19.6288C17.9821 19.5676 17.9321 19.4861 17.9321 19.4476C17.9321 19.4091 17.9117 19.3777 17.8868 19.3777C17.8583 19.3777 17.8415 19.0758 17.8415 18.5626V17.7475H18.9736H20.1057V16.6607C20.1057 15.9664 20.0893 15.5739 20.0604 15.5739C20.0355 15.5739 20.0151 15.5331 20.0151 15.4833C20.0151 15.4335 19.9947 15.3928 19.9698 15.3928C19.9449 15.3928 19.9245 15.352 19.9245 15.3022C19.9245 15.2524 19.9042 15.2116 19.8792 15.2116C19.8543 15.2116 19.834 15.1802 19.834 15.1417C19.834 15.0561 19.6343 14.8494 19.5517 14.8494C19.5187 14.8494 19.4623 14.8086 19.4264 14.7588C19.3881 14.7056 19.3092 14.6682 19.2353 14.6682C19.1661 14.6682 19.1094 14.6479 19.1094 14.623C19.1094 14.5981 19.0075 14.5777 18.883 14.5777C18.7585 14.5777 18.6566 14.5573 18.6566 14.5324C18.6566 14.5075 18.5751 14.4871 18.4755 14.4871C18.3758 14.4871 18.2943 14.5075 18.2943 14.5324ZM8.15094 17.3399C8.15094 19.0909 8.16657 20.0116 8.19623 20.0116C8.22113 20.0116 8.24151 20.0633 8.24151 20.1263C8.24151 20.2539 8.51081 20.555 8.62492 20.555C8.66309 20.555 8.69434 20.5754 8.69434 20.6003C8.69434 20.6255 8.81511 20.6456 8.96604 20.6456C9.11697 20.6456 9.23774 20.6255 9.23774 20.6003C9.23774 20.5754 9.29887 20.555 9.37358 20.555C9.4483 20.555 9.50943 20.5347 9.50943 20.5098C9.50943 20.4848 9.55019 20.4645 9.6 20.4645C9.64981 20.4645 9.69057 20.4441 9.69057 20.4192C9.69057 20.3943 9.72312 20.3739 9.76297 20.3739C9.80278 20.3739 9.89248 20.3128 9.96226 20.2381C10.032 20.1633 10.1218 20.1022 10.1616 20.1022C10.2038 20.1022 10.234 20.0644 10.234 20.0116C10.234 19.9513 10.2642 19.9211 10.3245 19.9211C10.4065 19.9211 10.4151 19.9513 10.4151 20.2381V20.555H10.9585H11.5019V17.6116V14.6682H10.9585H10.4151V16.9112V19.1543L10.2581 19.3112C10.1718 19.3976 10.0699 19.4682 10.0317 19.4682C9.99351 19.4682 9.96226 19.4886 9.96226 19.5135C9.96226 19.5384 9.92151 19.5588 9.8717 19.5588C9.82189 19.5588 9.78113 19.5792 9.78113 19.6041C9.78113 19.6924 9.54892 19.6477 9.43947 19.5382L9.3283 19.4271V17.0476V14.6682H8.73962H8.15094V17.3399ZM14.6053 15.6403L14.7623 15.7973V17.6328C14.7623 18.8262 14.7464 19.4682 14.717 19.4682C14.6921 19.4682 14.6717 19.5003 14.6717 19.5394C14.6717 19.6758 14.5497 19.7399 14.29 19.7399C14.1513 19.7399 14.0377 19.7196 14.0377 19.6947C14.0377 19.6698 14.0063 19.6494 13.9678 19.6494C13.9293 19.6494 13.8478 19.5993 13.7866 19.5382L13.6755 19.4271V17.5652C13.6755 15.6053 13.6786 15.5739 13.876 15.5739C13.9152 15.5739 13.9472 15.5535 13.9472 15.5286C13.9472 15.5037 14.0599 15.4833 14.1977 15.4833C14.4233 15.4833 14.464 15.499 14.6053 15.6403ZM18.7713 15.6403L18.9283 15.7973V16.3196V16.8418H18.3849H17.8415V16.319C17.8415 15.8243 17.8475 15.7902 17.9527 15.6851C18.0138 15.6239 18.0953 15.5739 18.1338 15.5739C18.1723 15.5739 18.2038 15.5535 18.2038 15.5286C18.2038 15.5037 18.2962 15.4833 18.409 15.4833C18.5829 15.4833 18.6384 15.5074 18.7713 15.6403Z" fill="white"/>
</svg>
