<svg width="16" height="16" viewBox="0 0 16 16" fill="none" xmlns="http://www.w3.org/2000/svg">
<path fill-rule="evenodd" clip-rule="evenodd" d="M11.964 0H4.03622C1.81049 0 0 1.81074 0 4.03621V11.964C0 14.1898 1.81049 16 4.03622 16H11.964C14.1898 16 16 14.1898 16 11.964V4.03621C16 1.81074 14.1898 0 11.964 0ZM14.259 11.964C14.259 13.2296 13.2293 14.2592 11.964 14.2592H4.03622C2.77093 14.2592 1.74129 13.2296 1.74129 11.964V4.03621C1.74129 2.77093 2.77093 1.74154 4.03622 1.74154H11.964C13.2293 1.74154 14.259 2.77093 14.259 4.03621V11.964ZM12.2532 4.73189C11.7154 4.73189 11.2778 4.29459 11.2778 3.75682C11.2778 3.2193 11.7154 2.782 12.2532 2.782C12.7909 2.782 13.2282 3.2193 13.2282 3.75682C13.2282 4.29459 12.7909 4.73189 12.2532 4.73189ZM3.87934 7.99989C3.87934 5.72778 5.72803 3.87934 7.99989 3.87934C10.2722 3.87934 12.1209 5.72803 12.1209 7.99989C12.1209 10.272 10.2722 12.1207 7.99989 12.1207C5.72803 12.1207 3.87934 10.272 3.87934 7.99989ZM5.62038 7.99989C5.62038 9.31206 6.68847 10.3799 7.99989 10.3799C9.31206 10.3799 10.3794 9.31206 10.3794 7.99989C10.3794 6.68822 9.31206 5.62088 7.99989 5.62088C6.68847 5.62088 5.62038 6.68822 5.62038 7.99989Z" fill="white"/>
</svg>
