<svg width="50" height="50" viewBox="0 0 50 50" fill="none" xmlns="http://www.w3.org/2000/svg">
<path fill-rule="evenodd" clip-rule="evenodd" d="M41.9453 10.0002C34.8354 10.0002 28.8016 14.6731 26.7786 21.096C26.556 20.9441 26.313 20.8201 26.0547 20.7285V17.8811C26.0547 15.3738 27.4478 13.1196 29.6904 11.9983C30.2114 11.7378 30.4226 11.1043 30.162 10.5833C29.9016 10.0623 29.2682 9.85108 28.7471 10.1116C27.2124 10.8789 25.8824 12.1111 25 13.7351C24.1179 12.1118 22.7881 10.8792 21.2529 10.1116C20.7319 9.85108 20.0984 10.0623 19.8379 10.5833C19.5774 11.1043 19.7886 11.7378 20.3095 11.9983C22.5522 13.1196 23.9453 15.3738 23.9453 17.8811V20.7285C23.8137 20.7754 23.6861 20.8303 23.563 20.8931C23.4447 20.9536 23.3306 21.0215 23.2214 21.096C21.1984 14.6731 15.1645 10.0002 8.05469 10.0002C7.47223 10.0002 7 10.4724 7 11.0549C7 15.0657 8.53641 18.8831 11.3383 21.8645C11.3215 21.999 11.309 22.134 11.3008 22.2695C11.293 22.3984 11.2891 22.5273 11.2891 22.6565C11.2891 24.8552 12.4164 26.7954 14.1233 27.9299C12.4164 29.0647 11.2891 31.0046 11.2891 33.2034C11.2891 36.6929 14.1279 39.5315 17.6172 39.5315C20.0272 39.5315 22.1267 38.177 23.195 36.1897C23.636 36.9287 24.2218 37.4221 25 37.4221C25.7782 37.4221 26.3639 36.9287 26.8049 36.1897C27.8733 38.177 29.9727 39.5315 32.3828 39.5315C35.8721 39.5315 38.7109 36.6929 38.7109 33.2034C38.7109 31.0046 37.5836 29.0647 35.8767 27.9299C37.5836 26.7954 38.7109 24.8552 38.7109 22.6565C38.7109 22.523 38.7068 22.3897 38.6984 22.2566C38.6902 22.1255 38.6779 21.9946 38.6617 21.8645C41.4636 18.8831 43 15.0659 43 11.0549C43 10.4724 42.5278 10.0002 41.9453 10.0002ZM13.3984 22.6565C13.3984 22.3477 13.4318 22.0398 13.4977 21.7415C13.5755 21.3892 13.4679 21.0215 13.2123 20.7669C10.835 18.3977 9.41736 15.3728 9.15408 12.1528C16.241 12.7122 21.8359 18.6287 21.8359 25.8206V26.8752H17.6172C15.291 26.8752 13.3984 24.9827 13.3984 22.6565ZM21.8359 33.2034C21.8359 35.5295 19.9434 37.4221 17.6172 37.4221C15.291 37.4221 13.3984 35.5295 13.3984 33.2034C13.3984 30.8772 15.291 28.9846 17.6172 28.9846H21.8359V33.2034ZM25 35.1231C24.2339 33.8413 24.0419 31.096 23.9742 30.1277L23.974 30.1248C23.9608 29.937 23.9524 29.8162 23.9453 29.7874V23.7112C23.9453 23.1296 24.4185 22.6565 25 22.6565C25.5815 22.6565 26.0547 23.1296 26.0547 23.7112V29.7874C26.0443 29.8298 26.0331 29.9832 26.0163 30.2148C25.9408 31.2534 25.7508 33.8667 25 35.1231ZM36.6016 33.2034C36.6016 35.5295 34.709 37.4221 32.3828 37.4221C30.0566 37.4221 28.1641 35.5295 28.1641 33.2034V28.9846H32.3828C34.709 28.9846 36.6016 30.8772 36.6016 33.2034ZM36.7876 20.7669C36.532 21.0215 36.4244 21.3892 36.5022 21.7415C36.5681 22.0398 36.6015 22.3477 36.6015 22.6567C36.6015 24.9829 34.709 26.8755 32.3828 26.8755H28.164V25.8208C28.164 18.6287 33.759 12.7122 40.8458 12.1531C40.5826 15.3728 39.1649 18.3977 36.7876 20.7669ZM18.6719 33.2031C19.2544 33.2031 19.7266 32.731 19.7266 32.1484C19.7266 31.5659 19.2544 31.0938 18.6719 31.0938C18.0894 31.0938 17.6172 31.5659 17.6172 32.1484C17.6172 32.731 18.0894 33.2031 18.6719 33.2031ZM32.3828 32.1484C32.3828 32.731 31.9106 33.2031 31.3281 33.2031C30.7456 33.2031 30.2734 32.731 30.2734 32.1484C30.2734 31.5659 30.7456 31.0938 31.3281 31.0938C31.9106 31.0938 32.3828 31.5659 32.3828 32.1484Z" fill="url(#paint0_linear)"/>
<defs>
<linearGradient id="paint0_linear" x1="6.70248" y1="10" x2="47.1903" y2="17.8107" gradientUnits="userSpaceOnUse">
<stop stop-color="#67ADD7"/>
<stop offset="1" stop-color="#67ADD7"/>
</linearGradient>
</defs>
</svg>
