<svg width="50" height="50" viewBox="0 0 50 50" fill="none" xmlns="http://www.w3.org/2000/svg">
<path fill-rule="evenodd" clip-rule="evenodd" d="M42.5616 24.1442C42.2438 23.9154 41.9445 23.6977 41.6577 23.4892C39.9022 22.2128 38.6194 21.28 36.4802 20.2449C37.3349 17.7877 37.5828 16.0198 37.8788 13.9082L37.9764 13.2167C38.0758 12.5206 37.4781 11.9243 36.7832 12.0236C36.5384 12.0585 36.2979 12.0922 36.0603 12.1253C34.0413 12.4066 32.2283 12.6595 29.7551 13.5197C28.7191 11.3787 27.7832 10.0918 26.5102 8.34143L26.494 8.31902C26.2904 8.03931 26.0782 7.74729 25.8556 7.43835C25.6575 7.16304 25.3389 7 24.9998 7C24.6606 7 24.3422 7.16304 24.1439 7.43835C23.9152 7.75586 23.6977 8.05513 23.4893 8.34165C22.2126 10.0975 21.2795 11.3809 20.2445 13.5197C17.7873 12.665 16.0193 12.4171 13.9081 12.1212C13.6819 12.0895 13.4517 12.0572 13.2164 12.0236C12.5202 11.9241 11.924 12.522 12.0231 13.2167C12.0582 13.463 12.0919 13.705 12.1252 13.9438C12.4075 15.9675 12.6593 17.7723 13.5193 20.2449C11.3792 21.2803 10.0924 22.2161 8.34335 23.4883C8.05601 23.6973 7.75619 23.9152 7.43803 24.1442C6.85427 24.5645 6.85372 25.4353 7.43803 25.8561C7.75619 26.0852 8.0559 26.3032 8.34297 26.512L8.34495 26.5133C10.0991 27.789 11.3818 28.7215 13.5193 29.7556C12.6644 32.2132 12.4165 33.9816 12.1204 36.0934L12.0231 36.7835C11.9236 37.4798 12.5216 38.0762 13.2163 37.9769C13.4611 37.9419 13.7016 37.9083 13.9392 37.8751C15.9581 37.5939 17.7712 37.341 20.2444 36.4807C21.2799 38.6211 22.2157 39.9078 23.4882 41.6573L23.504 41.679C23.708 41.9596 23.9207 42.2521 24.1439 42.5619C24.564 43.1457 25.435 43.1464 25.8556 42.5619C26.0727 42.2604 26.2798 41.9754 26.4786 41.7023L26.5101 41.6588C27.7869 39.903 28.7201 38.6196 29.7551 36.4807C32.2121 37.3353 33.98 37.5833 36.0915 37.8795H36.0931C36.3188 37.9112 36.5484 37.9432 36.7832 37.9769C37.1075 38.023 37.4403 37.9164 37.6781 37.6785C37.9129 37.4438 38.0233 37.1122 37.9764 36.7835L37.9245 36.4155L37.8742 36.0571C37.5921 34.0334 37.3404 32.2281 36.4802 29.7556C38.6209 28.7198 39.9084 27.7835 41.6567 26.512C41.9439 26.303 42.2436 26.085 42.5616 25.8561C42.8368 25.6579 42.9999 25.3393 42.9999 25.0002C42.9999 24.661 42.8369 24.3426 42.5616 24.1442ZM35.6894 14.3105L35.6592 14.5252C35.5192 15.5236 35.2812 17.2221 34.5393 19.4014C33.5688 19.0254 32.5736 18.7057 31.555 18.4449C31.2942 17.4265 30.9745 16.4313 30.5988 15.4608C32.762 14.7243 34.4296 14.4887 35.5 14.3376L35.6894 14.3105ZM24.9998 9.85974L25.2793 10.2456L25.2813 10.2482C26.0476 11.3036 26.8742 12.442 27.7863 14.2958C27.3332 14.496 26.8852 14.7089 26.4425 14.935C26.171 15.0739 25.9016 15.2173 25.6341 15.3659L25.4358 15.4773L25.269 15.5724C25.179 15.6243 25.0892 15.6768 24.9998 15.7297C24.0952 15.194 23.1654 14.7164 22.2134 14.2958C23.1053 12.4831 23.8768 11.415 24.7735 10.1735L24.9998 9.85974ZM19.4009 15.4608C19.0252 16.4311 18.7055 17.4263 18.4447 18.4449C17.4261 18.7057 16.431 19.0254 15.4604 19.4012C14.7223 17.2333 14.4857 15.5542 14.3385 14.5109L14.3102 14.3105L14.5293 14.3413C15.503 14.4773 17.216 14.7168 19.4009 15.4608ZM9.85936 25.0002L10.2449 24.7212C11.3009 23.9541 12.4398 23.1268 14.2955 22.2139C14.716 23.1657 15.1935 24.0956 15.7293 25.0002C15.1935 25.9048 14.716 26.8347 14.2955 27.7866C12.4823 26.8945 11.4142 26.123 10.1726 25.2263L9.85936 25.0002ZM14.3102 35.6897C14.4419 34.768 14.6568 32.9594 15.4604 30.5991C16.4308 30.9748 17.426 31.2945 18.4446 31.5553C18.7054 32.574 19.0251 33.5691 19.4009 34.5397C17.2362 35.2766 15.5678 35.5122 14.4975 35.6631L14.3102 35.6897ZM24.9998 40.1407C24.9076 40.0126 24.8146 39.8845 24.7206 39.7551C23.9537 38.6991 23.1264 37.5603 22.2134 35.7047C23.1654 35.2841 24.0951 34.8064 24.9998 34.2707C25.9044 34.8064 26.8343 35.2841 27.7863 35.7047C26.8947 37.5165 26.1237 38.5842 25.2277 39.825L24.9998 40.1407ZM29.6542 30.4457C29.3916 31.5857 29.0494 32.6946 28.6329 33.7711C27.5773 33.3046 26.551 32.7623 25.5592 32.142C25.217 31.928 24.7827 31.928 24.4406 32.142C23.4487 32.7623 22.4226 33.3046 21.3669 33.7711C20.9503 32.6948 20.6081 31.5857 20.3455 30.4457C20.2549 30.0524 19.9478 29.7452 19.5545 29.6547C18.4146 29.3921 17.3055 29.0498 16.2291 28.6332C16.6957 27.5776 17.2378 26.5513 17.8582 25.5597C18.0723 25.2175 18.0723 24.7831 17.8582 24.441C17.2378 23.4492 16.6957 22.4231 16.2291 21.3673C17.3054 20.9507 18.4146 20.6086 19.5545 20.346C19.9478 20.2552 20.2549 19.9483 20.3455 19.555C20.6081 18.415 20.9505 17.3058 21.3669 16.2294C22.4225 16.6961 23.4487 17.2382 24.4406 17.8587C24.7827 18.0727 25.217 18.0727 25.5592 17.8587C26.551 17.2382 27.5772 16.6961 28.6329 16.2294C29.0494 17.3058 29.3917 18.415 29.6542 19.555C29.7448 19.9483 30.0519 20.2552 30.4452 20.346C31.5851 20.6086 32.6942 20.9507 33.7707 21.3673C33.304 22.4231 32.7619 23.4492 32.1415 24.441C31.9275 24.7831 31.9275 25.2173 32.1415 25.5597C32.7619 26.5513 33.3041 27.5776 33.7707 28.6332C32.6943 29.0498 31.5852 29.3921 30.4452 29.6547C30.0519 29.7452 29.7448 30.0524 29.6542 30.4457ZM30.5987 34.5397C30.9744 33.5691 31.2941 32.574 31.555 31.5553C32.5736 31.2945 33.5686 30.9748 34.5392 30.5991C35.2774 32.7674 35.5141 34.4467 35.661 35.4893L35.6894 35.6897L35.4733 35.6592C34.5001 35.5234 32.7859 35.2843 30.5987 34.5397ZM35.7041 27.7866C35.2837 26.8347 34.8061 25.9048 34.2703 25.0002C34.8061 24.0956 35.2837 23.1657 35.7041 22.2139C37.5163 23.1053 38.5844 23.8768 39.8253 24.7733L40.1403 25.0002L39.9051 25.1701L39.754 25.2797C38.6981 26.0468 37.5594 26.8738 35.7041 27.7866ZM24.9991 26.0549C25.5816 26.0549 26.0538 25.5827 26.0538 25.0002C26.0538 24.4177 25.5816 23.9455 24.9991 23.9455C24.4166 23.9455 23.9444 24.4177 23.9444 25.0002C23.9444 25.5827 24.4166 26.0549 24.9991 26.0549ZM19.7257 25.0002C19.7257 22.0924 22.0914 19.7268 24.9991 19.7268C27.907 19.7268 30.2726 22.0926 30.2727 25.0002C30.2727 27.9081 27.907 30.2737 24.9991 30.2737C22.0914 30.2737 19.7257 27.9081 19.7257 25.0002ZM21.8352 25.0002C21.8352 26.7451 23.2545 28.1645 24.9991 28.1645C26.7439 28.1645 28.1633 26.7449 28.1633 25.0002C28.1633 23.2556 26.7439 21.8362 24.9991 21.8362C23.2545 21.8362 21.8352 23.2556 21.8352 25.0002Z" fill="url(#paint0_linear)"/>
<defs>
<linearGradient id="paint0_linear" x1="6.70248" y1="7" x2="47.671" y2="13.4833" gradientUnits="userSpaceOnUse">
<stop stop-color="#67ADD7"/>
<stop offset="1" stop-color="#67ADD7"/>
</linearGradient>
</defs>
</svg>
