<svg width="509" height="640" viewBox="0 0 509 640" fill="none" xmlns="http://www.w3.org/2000/svg">
<mask id="mask0" mask-type="alpha" maskUnits="userSpaceOnUse" x="0" y="0" width="511" height="640">
<path d="M0 0H511V640H0V0Z" fill="#E8F0F6"/>
</mask>
<g mask="url(#mask0)">
<path opacity="0.1" fill-rule="evenodd" clip-rule="evenodd" d="M132.093 432.154C134.008 430.255 134.008 427.216 132.093 425.317C116.387 409.742 107.577 388.849 107.577 366.437C107.577 320.473 145.5 282.866 191.852 282.866C208.323 282.866 229.392 289.324 243.949 298.82C253.142 304.898 261.57 311.356 269.231 317.814L242.416 368.336C228.626 391.888 210.622 398.346 195.682 398.346C177.678 398.346 163.121 383.911 163.121 366.057C163.121 348.203 177.678 333.768 195.682 333.768C198.747 333.768 201.811 334.528 204.876 335.288C211.388 336.807 214.836 327.69 207.557 326.171C203.727 325.411 199.896 324.272 195.682 324.272C172.315 324.272 153.545 342.885 153.545 366.057C153.545 389.229 172.315 407.843 195.682 407.843C221.348 407.843 266.933 399.865 297.195 345.924C309.453 359.979 320.562 374.414 330.905 389.229L305.24 459.885C295.28 484.956 282.639 509.268 256.59 527.501C251.61 530.92 240.501 536.618 228.243 540.797C222.114 542.696 223.646 552.193 231.691 549.534C294.131 527.501 336.651 485.336 357.337 427.596C385.301 468.622 425.523 520.664 506.35 520.664C575.302 520.664 635.827 465.203 635.827 396.826C635.827 316.674 572.621 273.369 512.862 273.369C462.68 273.369 425.906 311.356 425.906 356.181C425.906 399.865 459.233 432.914 503.286 432.914C510.564 432.914 516.693 426.836 516.693 419.619C516.693 412.021 510.564 406.323 503.286 406.323C495.624 406.323 489.878 412.401 489.878 419.619C489.878 420.758 489.878 421.518 490.261 422.658C458.084 416.96 435.483 390.369 435.483 356.56C435.483 316.674 469.959 282.866 512.862 282.866C566.492 282.866 597.137 336.807 597.137 387.71C597.137 450.008 541.592 500.531 478.386 500.531C423.607 500.531 384.918 450.388 361.167 416.58L433.567 215.629C437.015 205.753 440.462 195.876 444.676 185.999C473.023 182.581 504.435 178.782 506.35 178.782C511.713 178.402 510.947 170.425 505.584 170.805C503.669 171.184 475.322 173.844 448.507 176.882C459.999 151.431 476.088 127.5 507.882 111.925C507.116 119.142 512.479 125.98 519.757 126.74C527.036 127.5 533.931 122.181 534.697 114.964C535.463 107.746 530.1 100.909 522.822 100.149C520.907 99.7692 518.991 100.149 517.076 100.909C470.342 117.243 435.1 144.594 411.732 181.061C403.688 181.821 398.325 182.581 398.325 182.581C372.66 185.24 329.373 199.295 301.792 257.415L273.445 310.596C265.784 304.138 257.739 298.061 248.929 291.983C232.84 281.346 209.856 274.509 191.852 274.509C140.137 274.509 98 316.294 98 367.577C98 392.268 107.577 415.44 125.198 432.914C127.113 434.054 130.178 434.054 132.093 432.154ZM346.228 251.717C365.381 212.97 384.918 192.837 399.474 191.318C399.474 191.318 401.773 190.938 405.986 190.558C399.857 201.574 394.494 212.97 390.281 225.126L334.736 378.213C324.393 364.158 313.667 350.103 301.792 336.807L346.228 251.717Z" fill="url(#paint0_linear)"/>
</g>
<defs>
<linearGradient id="paint0_linear" x1="93.5552" y1="100" x2="699.271" y2="214.564" gradientUnits="userSpaceOnUse">
<stop stop-color="#67ADD7"/>
<stop offset="1" stop-color="#67ADD7"/>
</linearGradient>
</defs>
</svg>
