<svg width="18" height="12" viewBox="0 0 18 12" fill="none" xmlns="http://www.w3.org/2000/svg">
<path d="M15.4916 7.63015C16.0886 8.31689 16.7188 8.96301 17.2544 9.719C17.4909 10.055 17.7149 10.4016 17.8862 10.7915C18.129 11.3457 17.9091 11.9556 17.4873 11.9887L14.865 11.9873C14.1886 12.0534 13.6491 11.7327 13.1954 11.1879C12.8324 10.7523 12.4962 10.2886 12.1471 9.83828C12.0039 9.65421 11.8541 9.48101 11.6752 9.3441C11.3172 9.07037 11.0065 9.15418 10.8019 9.59401C10.5935 10.0414 10.5463 10.5367 10.5258 11.0353C10.4977 11.7627 10.3111 11.954 9.69083 11.9873C8.36525 12.0609 7.10722 11.8246 5.93854 11.0369C4.9082 10.3424 4.10921 9.36201 3.41377 8.25209C2.05975 6.09085 1.02284 3.716 0.0909061 1.27462C-0.118865 0.724571 0.0345452 0.429308 0.549718 0.418858C1.40519 0.39928 2.26053 0.400674 3.11701 0.417464C3.46469 0.423456 3.69487 0.658384 3.82912 1.04533C4.29195 2.386 4.85828 3.66152 5.56915 4.84382C5.75846 5.1586 5.95149 5.47336 6.22638 5.69492C6.53048 5.94023 6.76201 5.85892 6.90507 5.45985C6.99585 5.20681 7.0356 4.93426 7.05606 4.66324C7.12384 3.73084 7.13277 2.80005 7.01389 1.87093C6.94091 1.29106 6.66366 0.915676 6.1725 0.805946C5.92186 0.75 5.95918 0.64013 6.08054 0.471598C6.29131 0.180934 6.48955 0 6.88473 0H9.84832C10.3149 0.108477 10.4185 0.355388 10.4824 0.908431L10.4849 4.78649C10.4798 5.00058 10.5757 5.63591 10.903 5.77762C11.165 5.8785 11.3377 5.63159 11.4949 5.43588C12.2045 4.5487 12.7109 3.50023 13.1633 2.41456C13.3641 1.93718 13.5367 1.44141 13.704 0.946052C13.828 0.578472 14.0225 0.397608 14.374 0.40562L17.2263 0.408616C17.3108 0.408616 17.3964 0.410079 17.4783 0.426591C17.959 0.523084 18.0907 0.766652 17.9422 1.31955C17.7083 2.18702 17.2532 2.90992 16.8083 3.63616C16.3326 4.41152 15.8239 5.16034 15.3522 5.9403C14.9188 6.65253 14.9532 7.01155 15.4916 7.63015Z" fill="white"/>
</svg>
