<svg width="50" height="50" viewBox="0 0 50 50" fill="none" xmlns="http://www.w3.org/2000/svg">
<path fill-rule="evenodd" clip-rule="evenodd" d="M16.4219 10.0772V13.1544L16.8438 13.5742C17.0758 13.8051 17.2656 14.0182 17.2656 14.0478C17.2656 14.0774 17.2895 14.1016 17.3186 14.1016C17.4008 14.1016 18.7422 15.4596 18.7422 15.5428C18.7422 15.6403 15.6403 18.7422 15.5428 18.7422C15.4705 18.7422 14.2422 17.5467 14.2422 17.4763C14.2422 17.4284 13.656 16.8438 13.6079 16.8438C13.5873 16.8438 13.4772 16.7488 13.3633 16.6328L13.1562 16.4219H10.0781H7V19.5336V22.6453L8.16016 23.8047C8.79824 24.4424 9.32031 24.9802 9.32031 25C9.32031 25.0198 8.79824 25.5576 8.16016 26.1953L7 27.3547V30.4664V33.5781H10.0766H13.1531L14.3125 32.418C15.0676 31.6624 15.4966 31.2578 15.5427 31.2578C15.6404 31.2578 18.7422 34.3596 18.7422 34.4573C18.7422 34.5034 18.3376 34.9324 17.582 35.6875L16.4219 36.8469V39.9234V43H19.5336H22.6453L23.8047 41.8398C24.4424 41.2018 24.9802 40.6797 25 40.6797C25.0198 40.6797 25.5576 41.2018 26.1953 41.8398L27.3547 43H30.4664H33.5781V39.9215V36.8431L33.4023 36.6719C33.3057 36.5777 33.2266 36.4836 33.2266 36.4627C33.2266 36.4145 32.6421 35.8281 32.594 35.8281C32.5235 35.8281 31.2578 34.5295 31.2578 34.4572C31.2578 34.3598 34.3597 31.2578 34.4571 31.2578C34.5404 31.2578 36.1797 32.8803 36.1797 32.9627C36.1797 32.9918 36.2041 33.0156 36.2339 33.0156C36.2637 33.0156 36.4134 33.1422 36.5664 33.2969L36.8446 33.5781H39.9223H43V30.4664V27.3547L41.8398 26.1953C41.2018 25.5576 40.6797 25.0198 40.6797 25C40.6797 24.9802 41.2018 24.4424 41.8398 23.8047L43 22.6453V19.5336V16.4219H39.9234H36.8469L35.6875 17.582C34.9324 18.3376 34.5034 18.7422 34.4573 18.7422C34.4109 18.7422 33.8488 18.2045 32.8222 17.1778C31.7955 16.1512 31.2578 15.5891 31.2578 15.5427C31.2578 15.4966 31.6624 15.0676 32.418 14.3125L33.5781 13.1531V10.0766V7H30.4664H27.3547L26.1953 8.16016C25.5576 8.79824 25.0198 9.32031 25 9.32031C24.9802 9.32031 24.4424 8.79824 23.8047 8.16016L22.6453 7H19.5336H16.4219V10.0772ZM22.6271 9.93537C23.1566 10.4648 23.4531 10.7867 23.4531 10.832C23.4531 10.8782 22.9124 11.4433 21.8888 12.4669C21.0284 13.3273 20.3085 14.0312 20.289 14.0312C20.2695 14.0312 19.866 13.6437 19.3924 13.1701L18.5312 12.3089V10.7092V9.10938H20.1662H21.8012L22.6271 9.93537ZM31.4688 10.7092V12.3089L30.6076 13.1701C30.134 13.6437 29.7305 14.0312 29.711 14.0312C29.6915 14.0312 28.9716 13.3273 28.1112 12.4669C27.0876 11.4433 26.5469 10.8781 26.5469 10.832C26.5469 10.7869 26.8425 10.4636 27.3643 9.93822L28.1816 9.11511L29.8252 9.11226L31.4688 9.10938V10.7092ZM26.6349 13.9434L28.2346 15.543L26.6349 17.1426C25.7552 18.0224 25.0194 18.7422 25 18.7422C24.9806 18.7422 24.2448 18.0224 23.3651 17.1426L21.7654 15.543L23.3563 13.9462C24.2313 13.0681 24.9671 12.3482 24.9913 12.3466C25.0155 12.3451 25.7552 13.0636 26.6349 13.9434ZM21.8888 18.619C22.9112 19.6414 23.4531 20.2078 23.4531 20.2539C23.4531 20.3277 20.3594 23.4531 20.2864 23.4531C20.2655 23.4531 20.1876 23.3898 20.1133 23.3125C20.039 23.2352 19.9611 23.1719 19.9401 23.1719C19.8907 23.1719 17.4062 20.6879 17.4062 20.6385C17.4062 20.6178 17.3266 20.5233 17.2293 20.4285L17.0523 20.2561L18.6443 18.6583C19.5199 17.7795 20.2562 17.0592 20.2804 17.0576C20.3046 17.056 21.0284 17.7587 21.8888 18.619ZM31.3458 18.6542C32.2255 19.5339 32.9453 20.2696 32.9453 20.2891C32.9453 20.3085 32.2413 21.0284 31.381 21.8888C30.3586 22.9112 29.7922 23.4531 29.7461 23.4531C29.6489 23.4531 26.5469 20.3511 26.5469 20.2539C26.5469 20.178 29.6221 17.0628 29.7023 17.0576C29.7265 17.056 30.4661 17.7745 31.3458 18.6542ZM13.1701 19.3924C13.6437 19.866 14.0312 20.2695 14.0312 20.289C14.0312 20.3085 13.3273 21.0284 12.4669 21.8888C11.4433 22.9124 10.8782 23.4531 10.832 23.4531C10.7867 23.4531 10.4648 23.1566 9.93537 22.6271L9.10938 21.8012V20.1662V18.5312H10.7092H12.3089L13.1701 19.3924ZM40.8906 20.1662V21.8012L40.0646 22.6271C39.5352 23.1566 39.2133 23.4531 39.168 23.4531C39.1218 23.4531 38.5567 22.9124 37.5331 21.8888C36.6727 21.0284 35.9688 20.3085 35.9688 20.289C35.9688 20.2695 36.3524 19.8673 36.8213 19.3953L37.6738 18.537L39.2822 18.5341L40.8906 18.5312V20.1662ZM17.1427 23.3651C18.0224 24.2449 18.7422 24.9806 18.7422 25C18.7422 25.0194 18.0224 25.7552 17.1426 26.6349L15.543 28.2346L13.9434 26.6349C13.0636 25.7552 12.3438 25.0194 12.3438 25C12.3438 24.9729 15.4948 21.7814 15.5343 21.7685C15.5392 21.7669 16.2629 22.4854 17.1427 23.3651ZM25.8615 22.5916C26.3158 23.0459 26.6875 23.4414 26.6875 23.4705C26.6875 23.4996 26.7113 23.5234 26.7404 23.5234C26.7985 23.5234 28.2344 24.9425 28.2344 24.9999C28.2344 25.0463 25.0462 28.2344 24.9999 28.2344C24.9532 28.2344 23.7344 27.0152 23.7344 26.9685C23.7344 26.9216 23.1487 26.3359 23.1018 26.3359C23.0552 26.3359 21.7656 25.0468 21.7656 25.0001C21.7656 24.9499 24.9378 21.7721 24.9914 21.7685C25.0157 21.7669 25.4072 22.1373 25.8615 22.5916ZM36.0567 23.3651C36.9365 24.2449 37.6562 24.9806 37.6562 25C37.6562 25.0194 36.9364 25.7552 36.0566 26.6349L34.457 28.2346L32.8574 26.6349C31.9776 25.7552 31.2578 25.0194 31.2578 25C31.2578 24.9729 34.4088 21.7814 34.4483 21.7685C34.4532 21.7669 35.177 22.4854 36.0567 23.3651ZM12.4669 28.1112C13.3273 28.9716 14.0312 29.6915 14.0312 29.711C14.0312 29.7305 13.6437 30.134 13.1701 30.6076L12.3089 31.4688H10.7092H9.10938V29.8338V28.1989L9.92676 27.3757C10.4915 26.807 10.7686 26.5517 10.8233 26.5498C10.8826 26.5476 11.2964 26.9408 12.4669 28.1112ZM21.8888 28.1112C22.9112 29.1336 23.4531 29.7 23.4531 29.7461C23.4531 29.7922 22.9112 30.3586 21.8888 31.381C21.0284 32.2413 20.3085 32.9453 20.2891 32.9453C20.2429 32.9453 17.0547 29.7571 17.0547 29.7109C17.0547 29.6915 17.7548 28.9729 18.6104 28.1141C19.7057 27.0147 20.1895 26.5518 20.2452 26.5498C20.3045 26.5476 20.718 26.9404 21.8888 28.1112ZM31.381 28.1112C32.2413 28.9716 32.9453 29.6915 32.9453 29.7109C32.9453 29.7304 32.2249 30.4667 31.3443 31.3472L29.7434 32.9482L29.6069 32.8061C29.5318 32.728 29.4532 32.6641 29.4323 32.6641C29.3829 32.6641 26.8984 30.1801 26.8984 30.1307C26.8984 30.11 26.8193 30.0161 26.7227 29.9219C26.626 29.8277 26.5469 29.7338 26.5469 29.7131C26.5469 29.6925 27.2469 28.9729 28.1025 28.1141C29.1979 27.0147 29.6817 26.5518 29.7374 26.5498C29.7967 26.5476 30.2102 26.9404 31.381 28.1112ZM40.0646 27.3729L40.8906 28.1988V29.8338V31.4688H39.2908H37.6911L36.8299 30.6076C36.3563 30.134 35.9688 29.7305 35.9688 29.711C35.9688 29.6915 36.6688 28.9729 37.5244 28.1141C38.6208 27.0136 39.1035 26.5518 39.1594 26.5498C39.2178 26.5476 39.4562 26.7645 40.0646 27.3729ZM26.6349 32.8574L28.2346 34.457L26.6349 36.0566C25.7552 36.9364 25.0194 37.6562 25 37.6562C24.9806 37.6562 24.2448 36.9364 23.3651 36.0566L21.7654 34.457L23.3563 32.8603C24.2313 31.9821 24.9671 31.2623 24.9913 31.2607C25.0155 31.2591 25.7552 31.9776 26.6349 32.8574ZM21.8888 37.5331C22.9124 38.5567 23.4531 39.1218 23.4531 39.168C23.4531 39.2133 23.1566 39.5352 22.6271 40.0646L21.8012 40.8906H20.1662H18.5312V39.2908V37.6911L19.3838 36.8328C19.8527 36.3607 20.2562 35.9732 20.2804 35.9716C20.3046 35.97 21.0284 36.6727 21.8888 37.5331ZM30.6076 36.8299L31.4688 37.6911V39.2908V40.8906H29.8338H28.1988L27.3729 40.0646C26.8435 39.5352 26.5469 39.2133 26.5469 39.1681C26.5469 39.092 29.6221 35.9769 29.7023 35.9716C29.7266 35.97 30.134 36.3563 30.6076 36.8299Z" fill="url(#paint0_linear)"/>
<defs>
<linearGradient id="paint0_linear" x1="6.70248" y1="7" x2="47.6711" y2="13.4833" gradientUnits="userSpaceOnUse">
<stop stop-color="#67ADD7"/>
<stop offset="1" stop-color="#67ADD7"/>
</linearGradient>
</defs>
</svg>
