<svg width="50" height="50" viewBox="0 0 50 50" fill="none" xmlns="http://www.w3.org/2000/svg">
<path fill-rule="evenodd" clip-rule="evenodd" d="M25.0002 9.34794C25.6486 9.34794 26.1741 8.82235 26.1741 8.17397C26.1741 7.52559 25.6486 7 25.0002 7C24.3519 7 23.8263 7.52559 23.8263 8.17397C23.8263 8.82235 24.3519 9.34794 25.0002 9.34794ZM19.5216 12.8698C19.5216 13.5182 18.996 14.0438 18.3476 14.0438C17.6993 14.0438 17.1737 13.5182 17.1737 12.8698C17.1737 12.2215 17.6993 11.6959 18.3476 11.6959C18.996 11.6959 19.5216 12.2215 19.5216 12.8698ZM33.2179 12.8698C33.2179 13.5182 32.6923 14.0438 32.044 14.0438C31.3957 14.0438 30.8701 13.5182 30.8701 12.8698C30.8701 12.2215 31.3957 11.6959 32.044 11.6959C32.6923 11.6959 33.2179 12.2215 33.2179 12.8698ZM37.3014 28.8237C40.3903 29.902 42.5224 31.87 42.6281 31.9687C43.1235 32.432 43.1244 33.2195 42.6281 33.6836C42.4603 33.8405 38.4647 37.5219 33.4131 37.5219C32.2766 37.5219 31.1936 37.3351 30.1955 37.0445C28.8158 38.6135 26.0058 39.6014 25.3659 39.8113C25.2008 39.8653 25.0267 39.8819 24.856 39.8611C24.781 39.8518 24.7067 39.8352 24.6341 39.8113C23.9941 39.6014 21.1842 38.6133 19.8045 37.0445C18.8064 37.3351 17.7236 37.5219 16.5869 37.5219C11.5352 37.5219 7.53963 33.8403 7.37201 33.6836C6.87637 33.2203 6.87562 32.433 7.37201 31.9687C7.47761 31.87 9.60971 29.9023 12.6986 28.8237C9.9555 24.8697 10.2074 19.7155 10.2212 19.4697C10.255 18.8723 10.7327 18.3959 11.3302 18.3638C11.5319 18.3527 15.8005 18.1503 19.5957 20.0437C20.9163 16.0967 24.0594 13.3065 24.2272 13.1599C24.6696 12.7729 25.3304 12.7729 25.7729 13.1599C25.9406 13.3065 29.0838 16.0967 30.4043 20.0437C34.1994 18.1503 38.4681 18.3532 38.6697 18.3638C39.2673 18.3959 39.7449 18.8723 39.7787 19.4697C39.7926 19.7155 40.0445 24.8697 37.3014 28.8237ZM28.6338 23.4348C28.6338 20.0455 26.2662 17.0537 25.0018 15.6977C23.7383 17.0575 21.3665 20.0598 21.3665 23.4348C21.3665 26.8241 23.734 29.8159 24.9984 31.1719C26.2619 29.8121 28.6338 26.8098 28.6338 23.4348ZM10.0681 32.8258C11.4139 33.7755 13.8592 35.174 16.587 35.174C18.4789 35.174 20.2347 34.5012 21.5824 33.772C19.4069 33.4398 16.6139 32.641 14.4293 30.7553C12.6048 31.2099 11.046 32.1352 10.0681 32.8258ZM12.5803 20.7212C12.6758 22.5396 13.1717 26.1695 15.5013 28.5435C15.5279 28.5638 15.5699 28.6043 15.629 28.6613C16.1436 29.1575 17.9545 30.9032 22.1787 31.4851C20.1358 28.8712 18.7308 25.7265 19.0713 22.4258C16.7888 21.115 14.0744 20.7931 12.5803 20.7212ZM22.2375 36.0825C22.9547 36.5787 24.0041 37.0917 25 37.4536C25.9957 37.092 27.0452 36.579 27.7626 36.0825C26.574 35.4886 25.6212 34.8287 25 34.3508C24.3788 34.8287 23.4261 35.4884 22.2375 36.0825ZM37.4224 20.721C35.9297 20.7923 33.213 21.114 30.9287 22.4258C31.2683 25.7189 29.871 28.8607 27.8254 31.4798C32.0571 30.8924 33.8597 29.1545 34.3719 28.6605C34.4307 28.6038 34.4725 28.5636 34.499 28.5433C36.8399 26.1587 37.3305 22.5363 37.4224 20.721ZM28.4175 33.772C29.7652 34.5012 31.5211 35.174 33.4131 35.174C36.1406 35.174 38.5857 33.7758 39.9321 32.8258C38.9545 32.1355 37.3956 31.2101 35.571 30.7553C33.3863 32.641 30.5932 33.4398 28.4175 33.772Z" fill="url(#paint0_linear)"/>
<defs>
<linearGradient id="paint0_linear" x1="6.70248" y1="7" x2="47.4723" y2="14.0663" gradientUnits="userSpaceOnUse">
<stop stop-color="#67ADD7"/>
<stop offset="1" stop-color="#67ADD7"/>
</linearGradient>
</defs>
</svg>
