<svg width="50" height="50" viewBox="0 0 50 50" fill="none" xmlns="http://www.w3.org/2000/svg">
<path d="M8.08574 8.43546L12.5725 18.7222C12.5758 18.7299 12.5801 18.7369 12.5836 18.7446C12.6347 18.8544 12.6967 18.9412 12.7703 19.0186C12.7762 19.0247 12.7813 19.0313 12.7873 19.0374L18.2807 24.5308C15.1851 27.4 11.757 31.2141 9.65718 34.8413C7.84533 37.9708 7.51823 40.1492 8.68484 41.3158C9.85152 42.4825 12.0299 42.1552 15.1593 40.3434C18.7845 38.2446 22.5981 34.8182 25.4698 31.7198C25.7438 31.9938 34.2473 40.4972 34.2473 40.4972C36.2507 42.5008 39.4936 42.501 41.4972 40.4972C43.5008 38.4937 43.501 35.251 41.4972 33.2472C41.1787 32.9287 32.038 23.788 31.6947 23.4447C32.2822 22.3739 32.6916 21.4204 32.913 20.6027C32.9487 20.4708 32.9781 20.343 33.0042 20.2174C34.791 20.8159 36.8444 20.406 38.2649 18.9855C39.6919 17.5584 40.6176 15.7352 40.9419 13.7129C41.2656 11.6945 40.9591 9.67275 40.0557 7.86602C39.9174 7.58944 39.6981 7.00149 38.9901 7.00149C38.4236 7.00149 37.9646 7.461 37.9646 8.02687C37.9646 9.13736 37.1 10.0889 36.0373 10.1481C34.3593 10.2416 33.2103 10.1682 31.8348 11.0684C29.8433 12.3726 29.0549 14.8213 29.7827 16.9953C29.6574 17.0213 29.5293 17.0516 29.3978 17.0872C28.58 17.3087 27.6266 17.718 26.5558 18.3056L20.0373 11.787C19.9504 11.7001 19.8476 11.6312 19.7444 11.5833C19.7368 11.5798 19.7299 11.5756 19.7222 11.5722L9.43542 7.0855C9.04824 6.91666 8.59816 7.00265 8.30046 7.30029C8.00242 7.59868 7.91724 8.04896 8.08574 8.43546ZM14.132 38.5688C11.6841 39.986 10.3565 40.0873 10.1349 39.8658C9.99877 39.7296 9.82008 38.6524 11.4318 35.8686C12.1091 34.6987 12.9815 33.4365 14.0052 32.1359L17.8648 35.9955C16.5642 37.0191 15.3018 37.8915 14.132 38.5688ZM19.4543 34.6851L15.3155 30.5462C15.7532 30.0378 16.211 29.5269 16.6859 29.0166L20.9839 33.3147C20.4736 33.7896 19.9628 34.2473 19.4543 34.6851ZM37.8806 32.5305L40.0474 34.6973C41.2496 35.8994 41.2497 37.8451 40.0474 39.0474C38.8452 40.2495 36.8997 40.2496 35.6974 39.0474L33.5305 36.8805L37.8806 32.5305ZM34.9747 29.6364L36.4247 31.0863L32.0806 35.4305L30.6306 33.9805L34.9747 29.6364ZM33.5305 28.1805L29.1805 32.5306L26.8397 30.1897C28.2892 28.512 29.5801 26.8217 30.6038 25.2539L33.5305 28.1805ZM32.958 12.7842C33.8008 12.2327 34.4117 12.2927 36.1514 12.1957C37.1985 12.1374 38.1749 11.6682 38.902 10.8742C39.3051 13.2608 38.5596 15.791 36.8149 17.5357C35.6156 18.735 33.6642 18.7351 32.4649 17.5357C31.0951 16.1658 31.3145 13.8606 32.958 12.7842ZM27.235 20.2754C29.8016 18.8113 30.8653 18.8758 31.0128 18.9834C31.0129 18.9835 31.0131 18.9837 31.0133 18.9839C31.5856 19.7619 29.0875 25.263 22.4599 31.8906L18.1099 27.5406C20.8147 24.8358 23.914 22.236 27.235 20.2754ZM24.7468 19.3967C23.1789 20.4205 21.4886 21.7112 19.8109 23.1608L14.9622 18.3122L19.3123 13.9621L24.7468 19.3967ZM17.5238 12.8508L13.8508 16.5238L11.0095 10.0094L17.5238 12.8508Z" fill="url(#paint0_linear)"/>
<defs>
<linearGradient id="paint0_linear" x1="43.2893" y1="42" x2="3.45895" y2="35.6968" gradientUnits="userSpaceOnUse">
<stop stop-color="#67ADD7"/>
<stop offset="1" stop-color="#67ADD7"/>
</linearGradient>
</defs>
</svg>
